<svg xmlns="http://www.w3.org/2000/svg" viewBox="0 0 50 50"><path style="text-indent:0;text-align:start;line-height:normal;text-transform:none;block-progression:tb;-inkscape-font-specification:Bitstream Vera Sans" d="M25 0C14.963 0 9.118 6.724 9 13.781A1 1 0 009 14a1 1 0 000 .094c.013 3.457.837 10.913 1.656 17.656.824 6.78 1.653 12.721 1.656 12.75.002.01 0 .021 0 .031.26 2.456 2.179 4.46 4.688 4.938a1 1 0 00.031.031c.77.128 2.408.212 4.219.313 1.811.1 3.7.187 4.75.187a1 1 0 00.188-.031l.03.031h.22c2.612-.1 5.272-.292 6.843-.625.01-.002.022.002.032 0 2.404-.494 4.197-2.492 4.468-4.813.003-.02-.002-.042 0-.062.018-.108 3.313-20.307 3.313-30.5a1 1 0 00-.094-.438c-.064-2.505-.716-5.762-2.938-8.5C35.713 2.167 31.614 0 25 0zm0 2c6.186 0 9.58 1.94 11.531 4.344.754.93 1.278 1.938 1.657 2.968a1 1 0 000 .032c.036 1.245-.36 1.971-1.126 2.625-.02-.07-.039-.117-.062-.188a7.012 7.012 0 00-1.125-2.156c-.874-1.12-2.369-2.088-4.5-2.25-.583-.044-1.226.005-1.906.094a8.727 8.727 0 00-3.5-2.219 9.508 9.508 0 00-2.532-.469c-.654-.03-1.062.032-1.062.032a1 1 0 00-.75 1.437s.175.435.375 1.063c-5.342.145-8.222 4.241-9.25 6.093-.011-.007-.02-.023-.031-.031-.864-.606-1.276-1.211-1.313-2.125a1 1 0 00-.031-.188C12.663 6.152 17.249 2 25 2zm-1.031 4.969c.49.025.611-.067 1.375.187 1.51.504 3.219 1.579 4.312 4.313a1.01 1.01 0 001.875-.75c-.194-.486-.421-.93-.656-1.344 1.832-.008 2.775.691 3.406 1.5.393.503.66 1.06.813 1.531.088.271.126.48.156.656-.773.333-1.651.615-2.594.876-1.654.457-3.464.855-5.093 1.406-1.562.528-3.027 1.217-3.97 2.437-1.95-1.487-4.8-2.049-7.28-2.843-.634-.204-1.226-.401-1.782-.626.853-1.565 3.256-5.077 7.906-5 .09.734.14 1.573.063 2.5a1.003 1.003 0 102 .157c.183-2.198-.167-3.817-.531-5zm-4.563 4.812a1 1 0 00-.093 1.969s1.042.36 1.718 1.188a1 1 0 101.532-1.282c-1.124-1.373-2.657-1.812-2.657-1.812a1 1 0 00-.312-.063 1 1 0 00-.188 0zm19.532 1.156c.026.368.062.726.062 1.063a1 1 0 00.094.406c-.084 9.923-3.282 29.844-3.282 29.844v.031c-.152 1.444-1.346 2.813-2.906 3.125l-.031.032c-1.184.253-3.765.427-6.25.53-1.883-.797-3.364-2.623-4.375-5.093-1.036-2.531-1.563-5.627-1.563-8.563 0-7.586 2.444-12.464 4.438-15.218v-.032c.515-.728 1.595-1.316 3.063-1.812 1.467-.496 3.267-.895 5-1.375 1.732-.48 3.432-1.031 4.78-2.031.356-.264.683-.567.97-.906zM11 14.563c.176.156.37.302.563.437.331.233.692.433 1.062.625a1 1 0 00.281.125c.872.424 1.81.782 2.781 1.094 2.616.838 5.388 1.599 6.782 2.593-1.919 3.183-3.782 8.06-3.782 14.875 0 3.165.555 6.5 1.72 9.344.661 1.618 1.54 3.089 2.655 4.25-.568-.027-1.14-.061-1.718-.093-1.789-.1-3.538-.241-3.969-.313v.031c-1.68-.32-2.94-1.688-3.094-3.218a1 1 0 000-.063s-.8-5.94-1.625-12.719C11.875 25.1 11.08 17.918 11 14.563zM27 24a2 2 0 100 4 2 2 0 000-4zm3 6a1 1 0 100 2 1 1 0 000-2z" overflow="visible" font-family="Bitstream Vera Sans"/></svg>